<svg xmlns="http://www.w3.org/2000/svg" width="48" height="48" fill="#161514" xmlns:v="https://vecta.io/nano"><path d="M24 0C10.747 0 0 11.017 0 24.608c0 10.872 6.877 20.096 16.413 23.35 1.2.228 1.64-.534 1.64-1.184l-.033-4.581c-6.677 1.489-8.086-2.903-8.086-2.903-1.092-2.844-2.665-3.601-2.665-3.601-2.178-1.527.164-1.496.164-1.496 2.41.174 3.679 2.536 3.679 2.536 2.141 3.762 5.615 2.674 6.984 2.046.215-1.59.837-2.676 1.524-3.29-5.331-.622-10.935-2.732-10.935-12.161 0-2.687.938-4.882 2.473-6.605-.249-.62-1.071-3.123.232-6.512 0 0 2.015-.661 6.602 2.522 1.914-.545 3.968-.819 6.007-.828 2.04.009 4.094.283 6.012.828 4.581-3.184 6.593-2.522 6.593-2.522 1.306 3.39.484 5.892.235 6.512 1.539 1.723 2.47 3.918 2.47 6.605 0 9.451-5.614 11.532-10.959 12.142.861.764 1.628 2.261 1.628 4.557l-.028 6.753c0 .655.432 1.422 1.648 1.181C41.132 44.697 48 35.476 48 24.608 48 11.017 37.255 0 24 0z"/><path d="M9.161 35.162c-.053.121-.24.157-.411.074s-.271-.245-.215-.366.239-.159.413-.076.273.246.213.368zm.97 1.101c-.114.108-.338.058-.489-.113-.157-.17-.186-.397-.07-.506s.334-.057.491.112.187.398.068.506zm.945 1.403c-.147.104-.387.007-.535-.21s-.147-.477.003-.581.385-.011.536.205.146.48-.004.586zm1.294 1.356c-.131.147-.411.108-.616-.093s-.268-.475-.136-.623.414-.106.62.093.271.477.131.623zm1.785.787c-.058.191-.327.278-.599.197s-.448-.307-.394-.5.327-.282.6-.196.448.305.392.499zm1.96.146c.007.201-.223.368-.508.371s-.518-.156-.521-.354c0-.203.225-.368.511-.373s.518.156.518.355zm1.825-.316c.034.196-.164.397-.447.451s-.535-.069-.571-.264c-.035-.201.167-.402.445-.454.283-.05.537.068.573.267z"/></svg>