<svg xmlns="http://www.w3.org/2000/svg" viewBox="0 0 75.8 74.9" xmlns:v="https://vecta.io/nano"><radialGradient id="A" cx=".583" cy="73.079" r="132.616" gradientUnits="userSpaceOnUse"><stop offset="0" stop-color="#f4ec55"/><stop offset=".241" stop-color="#e48242"/><stop offset=".346" stop-color="#d66863"/><stop offset=".442" stop-color="#cd4f74"/><stop offset=".489" stop-color="#c94379"/><stop offset="1" stop-color="#3f56a6"/></radialGradient><path fill="url(#A)" d="M38.2 72.8h0c-19.8 0-35.8-16-35.8-35.8h0c0-19.8 16.1-35.9 35.9-35.9h0C58 1.1 74.1 17.2 74.1 37h0c0 19.8-16.1 35.8-35.9 35.8z"/><path d="M38.2 20.9l7.9.1c1.9.1 3 .4 3.7.7.9.4 1.6.8 2.3 1.5s1.1 1.3 1.5 2.3c.3.7.6 1.7.7 3.7l.1 7.9-.1 7.9c-.1 1.9-.4 3-.7 3.7-.4.9-.8 1.6-1.5 2.3s-1.3 1.1-2.3 1.5c-.7.3-1.7.6-3.7.7l-7.9.1c-5.3 0-5.9 0-7.9-.1-1.9-.1-3-.4-3.7-.7-.9-.4-1.6-.8-2.3-1.5s-1.1-1.3-1.5-2.3c-.3-.7-.6-1.7-.7-3.7l-.1-7.9.1-7.9c.1-1.9.4-3 .7-3.7.4-.9.8-1.6 1.5-2.3s1.3-1.1 2.3-1.5c.7-.3 1.7-.6 3.7-.7l7.9-.1m0-3.6l-8.1.1c-2.1.1-3.5.4-4.8.9a9.67 9.67 0 0 0-3.5 2.3 9.67 9.67 0 0 0-2.3 3.5c-.5 1.3-.8 2.7-.9 4.8l-.1 8.1.1 8.1c.1 2.1.4 3.5.9 4.8a9.67 9.67 0 0 0 2.3 3.5 9.67 9.67 0 0 0 3.5 2.3c1.3.5 2.7.8 4.8.9l8.1.1 8.1-.1c2.1-.1 3.5-.4 4.8-.9a9.67 9.67 0 0 0 3.5-2.3 9.67 9.67 0 0 0 2.3-3.5c.5-1.3.8-2.7.9-4.8l.1-8.1-.1-8.1c-.1-2.1-.4-3.5-.9-4.8a9.67 9.67 0 0 0-2.3-3.5 9.67 9.67 0 0 0-3.5-2.3c-1.3-.5-2.7-.8-4.8-.9l-8.1-.1m0 9.6A10.07 10.07 0 0 0 28.1 37a10.07 10.07 0 0 0 10.1 10.1A10.07 10.07 0 0 0 48.3 37a10.07 10.07 0 0 0-10.1-10.1m0 16.6c-3.6 0-6.6-2.9-6.6-6.6 0-3.6 2.9-6.6 6.6-6.6 3.6 0 6.6 2.9 6.6 6.6s-2.9 6.6-6.6 6.6m12.9-17c0 1.3-1.1 2.4-2.4 2.4s-2.4-1.1-2.4-2.4 1.1-2.4 2.4-2.4 2.4 1.1 2.4 2.4" fill="#fff"/></svg>